{
    "asset" : {
        "generator" : "Khronos glTF Blender I/O v1.1.45",
        "version" : "2.0"
    },
    "scene" : 0,
    "scenes" : [
        {
            "name" : "Scene",
            "nodes" : [
                0,
                1,
                2,
                3
            ]
        }
    ],
    "nodes" : [
        {
            "mesh" : 0,
            "name" : "Plane",
            "rotation" : [
                0.6051830649375916,
                -0.3746781647205353,
                0.365484356880188,
                0.5998257398605347
            ],
            "scale" : [
                2,
                1,
                1.25
            ],
            "translation" : [
                -0.7037103772163391,
                3.5309300422668457,
                0.297044038772583
            ]
        },
        {
            "name" : "Field",
            "rotation" : [
                -0.6667146682739258,
                0.09849970042705536,
                0.22521139681339264,
                0.7036114931106567
            ],
            "translation" : [
                -9.687200546264648,
                3.4548730850219727,
                2.414374828338623
            ]
        },
        {
            "name" : "Sun",
            "rotation" : [
                0.4742930829524994,
                -0.03753473237156868,
                0.4068583548069,
                0.7798098921775818
            ],
            "translation" : [
                -7.28717565536499,
                5.676576137542725,
                7.859901428222656
            ]
        },
        {
            "name" : "Camera",
            "rotation" : [
                0.6353170871734619,
                -0.31481075286865234,
                0.3049243688583374,
                0.6358360648155212
            ],
            "translation" : [
                -6.656076431274414,
                3.5471441745758057,
                5.386014461517334
            ]
        }
    ],
    "materials" : [
        {
            "doubleSided" : true,
            "name" : "Material.001",
            "pbrMetallicRoughness" : {}
        }
    ],
    "meshes" : [
        {
            "name" : "Plane",
            "primitives" : [
                {
                    "attributes" : {
                        "POSITION" : 0,
                        "NORMAL" : 1,
                        "TEXCOORD_0" : 2,
                        "JOINTS_0" : 3,
                        "WEIGHTS_0" : 4
                    },
                    "indices" : 5,
                    "material" : 0
                }
            ]
        }
    ],
    "accessors" : [
        {
            "bufferView" : 0,
            "componentType" : 5126,
            "count" : 1035,
            "max" : [
                1,
                0,
                1
            ],
            "min" : [
                -1,
                0,
                -1
            ],
            "type" : "VEC3"
        },
        {
            "bufferView" : 1,
            "componentType" : 5126,
            "count" : 1035,
            "type" : "VEC3"
        },
        {
            "bufferView" : 2,
            "componentType" : 5126,
            "count" : 1035,
            "type" : "VEC2"
        },
        {
            "bufferView" : 3,
            "componentType" : 5123,
            "count" : 1035,
            "type" : "VEC4"
        },
        {
            "bufferView" : 4,
            "componentType" : 5126,
            "count" : 1035,
            "type" : "VEC4"
        },
        {
            "bufferView" : 5,
            "componentType" : 5123,
            "count" : 5808,
            "type" : "SCALAR"
        }
    ],
    "bufferViews" : [
        {
            "buffer" : 0,
            "byteLength" : 12420,
            "byteOffset" : 0
        },
        {
            "buffer" : 0,
            "byteLength" : 12420,
            "byteOffset" : 12420
        },
        {
            "buffer" : 0,
            "byteLength" : 8280,
            "byteOffset" : 24840
        },
        {
            "buffer" : 0,
            "byteLength" : 8280,
            "byteOffset" : 33120
        },
        {
            "buffer" : 0,
            "byteLength" : 16560,
            "byteOffset" : 41400
        },
        {
            "buffer" : 0,
            "byteLength" : 11616,
            "byteOffset" : 57960
        }
    ],
    "buffers" : [
        {
            "byteLength" : 69576,
            "uri" : "flag.bin"
        }
    ]
}
