{
    "asset" : {
        "generator" : "Khronos glTF Blender I/O v1.4.40",
        "version" : "2.0"
    },
    "scene" : 0,
    "scenes" : [
        {
            "name" : "Scene",
            "nodes" : [
                0,
                1,
                2
            ]
        }
    ],
    "nodes" : [
        {
            "mesh" : 0,
            "name" : "Plane",
            "rotation" : [
                0.7071353197097778,
                0,
                0,
                0.707078218460083
            ],
            "scale" : [
                1.2863619327545166,
                1.2863619327545166,
                1.2863619327545166
            ]
        },
        {
            "mesh" : 1,
            "name" : "Cylinder",
            "scale" : [
                -0.14822900295257568,
                -4.218600749969482,
                -0.15035247802734375
            ],
            "translation" : [
                -2.3178398609161377,
                -2.906176805496216,
                -0.005037618335336447
            ]
        },
        {
            "mesh" : 2,
            "name" : "Sphere",
            "scale" : [
                -0.1513933539390564,
                -0.1513933539390564,
                -0.1513933539390564
            ],
            "translation" : [
                -2.319267749786377,
                1.5141574144363403,
                -0.0005648797377943993
            ]
        }
    ],
    "materials" : [
        {
            "doubleSided" : true,
            "name" : "Material.001",
            "pbrMetallicRoughness" : {
                "baseColorTexture" : {
                    "index" : 0,
                    "texCoord" : 0
                },
                "metallicFactor" : 0,
                "roughnessFactor" : 0.5
            }
        },
        {
            "doubleSided" : true,
            "name" : "flag pole",
            "pbrMetallicRoughness" : {}
        }
    ],
    "meshes" : [
        {
            "name" : "Plane",
            "primitives" : [
                {
                    "attributes" : {
                        "POSITION" : 0,
                        "NORMAL" : 1,
                        "TEXCOORD_0" : 2
                    },
                    "indices" : 3,
                    "material" : 0
                }
            ]
        },
        {
            "name" : "Cylinder",
            "primitives" : [
                {
                    "attributes" : {
                        "POSITION" : 4,
                        "NORMAL" : 5,
                        "TEXCOORD_0" : 6
                    },
                    "indices" : 7,
                    "material" : 1
                }
            ]
        },
        {
            "name" : "Sphere",
            "primitives" : [
                {
                    "attributes" : {
                        "POSITION" : 8,
                        "NORMAL" : 9,
                        "TEXCOORD_0" : 10
                    },
                    "indices" : 11,
                    "material" : 1
                }
            ]
        }
    ],
    "textures" : [
        {
            "sampler" : 0,
            "source" : 0
        }
    ],
    "images" : [
        {
            "mimeType" : "image/jpeg",
            "name" : "flag",
            "uri" : "flag.jpg"
        }
    ],
    "accessors" : [
        {
            "bufferView" : 0,
            "componentType" : 5126,
            "count" : 1089,
            "max" : [
                1.6841847896575928,
                1.5191952808034603e-16,
                1.0000001192092896
            ],
            "min" : [
                -1.6841847896575928,
                -1.5191952808034603e-16,
                -1.0000001192092896
            ],
            "type" : "VEC3"
        },
        {
            "bufferView" : 1,
            "componentType" : 5126,
            "count" : 1089,
            "type" : "VEC3"
        },
        {
            "bufferView" : 2,
            "componentType" : 5126,
            "count" : 1089,
            "type" : "VEC2"
        },
        {
            "bufferView" : 3,
            "componentType" : 5123,
            "count" : 6144,
            "type" : "SCALAR"
        },
        {
            "bufferView" : 4,
            "componentType" : 5126,
            "count" : 462,
            "max" : [
                1,
                1,
                1
            ],
            "min" : [
                -1,
                -1.0157848596572876,
                -1
            ],
            "type" : "VEC3"
        },
        {
            "bufferView" : 5,
            "componentType" : 5126,
            "count" : 462,
            "type" : "VEC3"
        },
        {
            "bufferView" : 6,
            "componentType" : 5126,
            "count" : 462,
            "type" : "VEC2"
        },
        {
            "bufferView" : 7,
            "componentType" : 5123,
            "count" : 948,
            "type" : "SCALAR"
        },
        {
            "bufferView" : 8,
            "componentType" : 5126,
            "count" : 1984,
            "max" : [
                1.000000238418579,
                1,
                1.0000003576278687
            ],
            "min" : [
                -0.9999998211860657,
                -1,
                -1
            ],
            "type" : "VEC3"
        },
        {
            "bufferView" : 9,
            "componentType" : 5126,
            "count" : 1984,
            "type" : "VEC3"
        },
        {
            "bufferView" : 10,
            "componentType" : 5126,
            "count" : 1984,
            "type" : "VEC2"
        },
        {
            "bufferView" : 11,
            "componentType" : 5123,
            "count" : 2880,
            "type" : "SCALAR"
        }
    ],
    "bufferViews" : [
        {
            "buffer" : 0,
            "byteLength" : 13068,
            "byteOffset" : 0
        },
        {
            "buffer" : 0,
            "byteLength" : 13068,
            "byteOffset" : 13068
        },
        {
            "buffer" : 0,
            "byteLength" : 8712,
            "byteOffset" : 26136
        },
        {
            "buffer" : 0,
            "byteLength" : 12288,
            "byteOffset" : 34848
        },
        {
            "buffer" : 0,
            "byteLength" : 5544,
            "byteOffset" : 47136
        },
        {
            "buffer" : 0,
            "byteLength" : 5544,
            "byteOffset" : 52680
        },
        {
            "buffer" : 0,
            "byteLength" : 3696,
            "byteOffset" : 58224
        },
        {
            "buffer" : 0,
            "byteLength" : 1896,
            "byteOffset" : 61920
        },
        {
            "buffer" : 0,
            "byteLength" : 23808,
            "byteOffset" : 63816
        },
        {
            "buffer" : 0,
            "byteLength" : 23808,
            "byteOffset" : 87624
        },
        {
            "buffer" : 0,
            "byteLength" : 15872,
            "byteOffset" : 111432
        },
        {
            "buffer" : 0,
            "byteLength" : 5760,
            "byteOffset" : 127304
        }
    ],
    "samplers" : [
        {
            "magFilter" : 9729,
            "minFilter" : 9986
        }
    ],
    "buffers" : [
        {
            "byteLength" : 133064,
            "uri" : "flag2.bin"
        }
    ]
}
