{"accessors":[{"bufferView":2,"byteOffset":0,"componentType":5126,"count":10392,"max":[1,1,1,1],"min":[0.006584956776350737,0.006584956776350737,0.006584956776350737,1],"name":"accessor_color_m0-PolyPaper21_-82464","type":"VEC4"},{"bufferView":0,"byteOffset":0,"componentType":5123,"count":14682,"max":[10391],"min":[0],"name":"accessor_indices_0_m0-PolyPaper21_-82464","type":"SCALAR"},{"bufferView":1,"byteOffset":124704,"componentType":5126,"count":10392,"max":[0.9977959,0.9987325,0.999327],"min":[-0.9977959,-0.9987324,-0.9993271],"name":"accessor_normal_m0-PolyPaper21_-82464","type":"VEC3"},{"bufferView":1,"byteOffset":0,"componentType":5126,"count":10392,"max":[0.4012025,1.810833,-0.1439518],"min":[-0.1710136,0.9396719,-0.9682055],"name":"accessor_position_m0-PolyPaper21_-82464","type":"VEC3"}],"asset":{"copyright":"Unknown","generator":"glTF 1-to-2 Upgrader for Google Blocks","version":"2.0"},"bufferViews":[{"buffer":0,"byteLength":29364,"byteOffset":0,"name":"ushortBufferView","target":34963},{"buffer":0,"byteLength":249408,"byteOffset":29364,"byteStride":12,"name":"vec3BufferView","target":34962},{"buffer":0,"byteLength":166272,"byteOffset":278772,"byteStride":16,"name":"vec4BufferView","target":34962}],"buffers":[{"byteLength":445044,"name":"model","uri":"data:application/octet-stream;base64,"}],"materials":[{"alphaMode":"OPAQUE","doubleSided":false,"name":"BlocksPaper","pbrMetallicRoughness":{"baseColorFactor":[1,1,1,1],"metallicFactor":0,"roughnessFactor":0.6}},{"alphaMode":"BLEND","doubleSided":false,"name":"BlocksGlass","pbrMetallicRoughness":{"baseColorFactor":[0.2,0.2,1,0.3],"metallicFactor":1,"roughnessFactor":0.4}},{"alphaMode":"OPAQUE","doubleSided":true,"name":"BlocksGem","pbrMetallicRoughness":{"baseColorFactor":[1,0.4,1,1],"metallicFactor":0,"roughnessFactor":0.1}}],"meshes":[{"name":"mesh_m0-PolyPaper21_-82464","primitives":[{"attributes":{"COLOR_0":0,"NORMAL":2,"POSITION":3},"indices":1,"material":0,"mode":4}]}],"nodes":[{"mesh":0,"name":"node_MeshObject-1902362624-PolyPaper21"}],"scene":0,"scenes":[{"extras":{},"name":"defaultScene","nodes":[0]}]}